<mxfile host="Electron" modified="2024-05-26T14:35:38.803Z" agent="Mozilla/5.0 (Windows NT 10.0; Win64; x64) AppleWebKit/537.36 (KHTML, like Gecko) draw.io/22.0.3 Chrome/114.0.5735.289 Electron/25.8.4 Safari/537.36" etag="t4EfC_HdLddGonVbIPaE" version="22.0.3" type="device">
  <diagram name="Page-1" id="K-6bbxtXHe_wpfmPoTJH">
    <mxGraphModel dx="1247" dy="727" grid="1" gridSize="10" guides="1" tooltips="1" connect="1" arrows="1" fold="1" page="1" pageScale="1" pageWidth="827" pageHeight="1169" math="0" shadow="0">
      <root>
        <mxCell id="0" />
        <mxCell id="1" parent="0" />
        <mxCell id="uFPO5G4s5H7xllB8uH97-15" value="无数据" style="edgeStyle=orthogonalEdgeStyle;rounded=0;orthogonalLoop=1;jettySize=auto;html=1;entryX=0.5;entryY=0;entryDx=0;entryDy=0;exitX=0.5;exitY=1;exitDx=0;exitDy=0;" parent="1" source="uFPO5G4s5H7xllB8uH97-22" target="uFPO5G4s5H7xllB8uH97-31" edge="1">
          <mxGeometry relative="1" as="geometry">
            <mxPoint x="240" y="606" as="sourcePoint" />
            <mxPoint x="373.9999999999998" y="736" as="targetPoint" />
            <Array as="points">
              <mxPoint x="220" y="680" />
              <mxPoint x="385" y="680" />
            </Array>
          </mxGeometry>
        </mxCell>
        <mxCell id="uFPO5G4s5H7xllB8uH97-16" style="edgeStyle=orthogonalEdgeStyle;rounded=0;orthogonalLoop=1;jettySize=auto;html=1;entryX=0.5;entryY=0;entryDx=0;entryDy=0;exitX=0.5;exitY=1;exitDx=0;exitDy=0;" parent="1" source="uFPO5G4s5H7xllB8uH97-20" target="uFPO5G4s5H7xllB8uH97-31" edge="1">
          <mxGeometry relative="1" as="geometry">
            <mxPoint x="374" y="636" as="sourcePoint" />
            <mxPoint x="373.9999999999998" y="736" as="targetPoint" />
            <Array as="points">
              <mxPoint x="550" y="680" />
              <mxPoint x="385" y="680" />
            </Array>
          </mxGeometry>
        </mxCell>
        <mxCell id="uFPO5G4s5H7xllB8uH97-20" value="根据人工设置&lt;br&gt;补全文件夹, csv" style="shape=parallelogram;perimeter=parallelogramPerimeter;whiteSpace=wrap;html=1;fixedSize=1;" parent="1" vertex="1">
          <mxGeometry x="490" y="580" width="120" height="60" as="geometry" />
        </mxCell>
        <mxCell id="Q9f2_ayKWb9l1kYFm8YF-10" value="有数据" style="edgeStyle=orthogonalEdgeStyle;rounded=0;orthogonalLoop=1;jettySize=auto;html=1;exitX=1;exitY=0.5;exitDx=0;exitDy=0;entryX=0;entryY=0.5;entryDx=0;entryDy=0;" edge="1" parent="1" source="uFPO5G4s5H7xllB8uH97-22" target="Q9f2_ayKWb9l1kYFm8YF-9">
          <mxGeometry relative="1" as="geometry">
            <Array as="points">
              <mxPoint x="300" y="610" />
              <mxPoint x="300" y="610" />
            </Array>
          </mxGeometry>
        </mxCell>
        <mxCell id="uFPO5G4s5H7xllB8uH97-22" value="新建整个体系" style="shape=parallelogram;perimeter=parallelogramPerimeter;whiteSpace=wrap;html=1;fixedSize=1;" parent="1" vertex="1">
          <mxGeometry x="160" y="580" width="120" height="60" as="geometry" />
        </mxCell>
        <mxCell id="uFPO5G4s5H7xllB8uH97-23" value="&lt;div style=&quot;&quot;&gt;&lt;span style=&quot;background-color: initial;&quot;&gt;函数1：&lt;/span&gt;&lt;/div&gt;初始化/检查" style="text;html=1;strokeColor=none;fillColor=none;align=left;verticalAlign=middle;whiteSpace=wrap;rounded=0;" parent="1" vertex="1">
          <mxGeometry x="20" y="590" width="80" height="30" as="geometry" />
        </mxCell>
        <mxCell id="uFPO5G4s5H7xllB8uH97-24" value="" style="shape=curlyBracket;whiteSpace=wrap;html=1;rounded=1;labelPosition=left;verticalLabelPosition=middle;align=right;verticalAlign=middle;" parent="1" vertex="1">
          <mxGeometry x="110" y="430" width="20" height="350" as="geometry" />
        </mxCell>
        <mxCell id="uFPO5G4s5H7xllB8uH97-31" value="读取所有数据，&lt;br&gt;展示数据缺漏" style="shape=parallelogram;perimeter=parallelogramPerimeter;whiteSpace=wrap;html=1;fixedSize=1;" parent="1" vertex="1">
          <mxGeometry x="324.9999999999998" y="717" width="120" height="60" as="geometry" />
        </mxCell>
        <mxCell id="uFPO5G4s5H7xllB8uH97-33" value="" style="edgeStyle=orthogonalEdgeStyle;rounded=0;orthogonalLoop=1;jettySize=auto;html=1;" parent="1" source="uFPO5G4s5H7xllB8uH97-34" target="uFPO5G4s5H7xllB8uH97-35" edge="1">
          <mxGeometry relative="1" as="geometry" />
        </mxCell>
        <mxCell id="uFPO5G4s5H7xllB8uH97-34" value="选择哪些部分" style="shape=parallelogram;perimeter=parallelogramPerimeter;whiteSpace=wrap;html=1;fixedSize=1;rounded=0;" parent="1" vertex="1">
          <mxGeometry x="325" y="854" width="120" height="60" as="geometry" />
        </mxCell>
        <mxCell id="uFPO5G4s5H7xllB8uH97-35" value="批量处理" style="shape=parallelogram;perimeter=parallelogramPerimeter;whiteSpace=wrap;html=1;fixedSize=1;rounded=0;" parent="1" vertex="1">
          <mxGeometry x="325" y="991" width="120" height="60" as="geometry" />
        </mxCell>
        <mxCell id="uFPO5G4s5H7xllB8uH97-36" value="" style="edgeStyle=orthogonalEdgeStyle;rounded=0;orthogonalLoop=1;jettySize=auto;html=1;exitX=0.5;exitY=1;exitDx=0;exitDy=0;" parent="1" source="uFPO5G4s5H7xllB8uH97-31" target="uFPO5G4s5H7xllB8uH97-34" edge="1">
          <mxGeometry relative="1" as="geometry">
            <mxPoint x="374" y="816" as="sourcePoint" />
          </mxGeometry>
        </mxCell>
        <mxCell id="uFPO5G4s5H7xllB8uH97-37" value="" style="shape=curlyBracket;whiteSpace=wrap;html=1;rounded=1;labelPosition=left;verticalLabelPosition=middle;align=right;verticalAlign=middle;" parent="1" vertex="1">
          <mxGeometry x="110" y="860" width="20" height="185" as="geometry" />
        </mxCell>
        <mxCell id="uFPO5G4s5H7xllB8uH97-38" value="&lt;div style=&quot;&quot;&gt;&lt;span style=&quot;background-color: initial;&quot;&gt;函数2：&lt;/span&gt;&lt;/div&gt;&lt;div style=&quot;&quot;&gt;&lt;span style=&quot;background-color: initial;&quot;&gt;批处理&lt;/span&gt;&lt;/div&gt;" style="text;html=1;strokeColor=none;fillColor=none;align=left;verticalAlign=middle;whiteSpace=wrap;rounded=0;" parent="1" vertex="1">
          <mxGeometry x="20" y="937.5" width="80" height="30" as="geometry" />
        </mxCell>
        <mxCell id="Q9f2_ayKWb9l1kYFm8YF-3" value="Y" style="edgeStyle=orthogonalEdgeStyle;rounded=0;orthogonalLoop=1;jettySize=auto;html=1;entryX=0.5;entryY=0;entryDx=0;entryDy=0;" edge="1" parent="1" source="Q9f2_ayKWb9l1kYFm8YF-1" target="uFPO5G4s5H7xllB8uH97-20">
          <mxGeometry relative="1" as="geometry" />
        </mxCell>
        <mxCell id="Q9f2_ayKWb9l1kYFm8YF-8" value="N" style="edgeStyle=orthogonalEdgeStyle;rounded=0;orthogonalLoop=1;jettySize=auto;html=1;entryX=0.5;entryY=0;entryDx=0;entryDy=0;" edge="1" parent="1" source="Q9f2_ayKWb9l1kYFm8YF-1" target="uFPO5G4s5H7xllB8uH97-22">
          <mxGeometry relative="1" as="geometry" />
        </mxCell>
        <mxCell id="Q9f2_ayKWb9l1kYFm8YF-1" value="逐一检查是否&lt;br&gt;按规矩排列" style="rhombus;whiteSpace=wrap;html=1;" vertex="1" parent="1">
          <mxGeometry x="345" y="434" width="80" height="80" as="geometry" />
        </mxCell>
        <mxCell id="Q9f2_ayKWb9l1kYFm8YF-11" style="edgeStyle=orthogonalEdgeStyle;rounded=0;orthogonalLoop=1;jettySize=auto;html=1;entryX=0.5;entryY=0;entryDx=0;entryDy=0;" edge="1" parent="1" source="Q9f2_ayKWb9l1kYFm8YF-9" target="uFPO5G4s5H7xllB8uH97-31">
          <mxGeometry relative="1" as="geometry" />
        </mxCell>
        <mxCell id="Q9f2_ayKWb9l1kYFm8YF-9" value="人工调整现有&lt;br&gt;的数据" style="shape=parallelogram;perimeter=parallelogramPerimeter;whiteSpace=wrap;html=1;fixedSize=1;" vertex="1" parent="1">
          <mxGeometry x="325" y="580" width="120" height="60" as="geometry" />
        </mxCell>
      </root>
    </mxGraphModel>
  </diagram>
</mxfile>
